# xmcd
#
# Track frame offsets:
#	150
#	19421
#	36539
#	55074
#	67908
#	86885
#	104553
#	131124
#	151924
#	171032
#	185913
#
# Disc length: 2629 seconds
#
# Revision: 2
# Processed by: cddbd v1.4b41PL2 Copyright (c) Steve Scherf et al.
# Submitted via: EZCDDA 4.3.2
#
DISCID=9e0a430b
DTITLE=Jhonny Tedesco - Viejos Son Los Trapos
DYEAR=1900
DGENRE=
TTITLE0=Uvas Amargas
TTITLE1=La Suerte Juega A Favor
TTITLE2=Me Gusta Estar Despierto
TTITLE3=Aire De Rock And Roll
TTITLE4=Larguemonos De Aca
TTITLE5=Algo Esta Llamandome
TTITLE6=Otra Dimension
TTITLE7=Diosa De Fuego
TTITLE8=6 Meses Y Una Noche Mas
TTITLE9=El Hombre Qeu Canta Blus
TTITLE10=Jhonny B. Good
EXTD=
EXTT0=
EXTT1=
EXTT2=
EXTT3=
EXTT4=
EXTT5=
EXTT6=
EXTT7=
EXTT8=
EXTT9=
EXTT10=
PLAYORDER=
